<?xml version="1.0" encoding="UTF-8" standalone="no"?>
<!-- Created with Inkscape (http://www.inkscape.org/) -->

<svg
   xmlns:dc="http://purl.org/dc/elements/1.1/"
   xmlns:cc="http://creativecommons.org/ns#"
   xmlns:rdf="http://www.w3.org/1999/02/22-rdf-syntax-ns#"
   xmlns:svg="http://www.w3.org/2000/svg"
   xmlns="http://www.w3.org/2000/svg"
   xmlns:sodipodi="http://sodipodi.sourceforge.net/DTD/sodipodi-0.dtd"
   xmlns:inkscape="http://www.inkscape.org/namespaces/inkscape"
   width="103.31609mm"
   height="16.712847mm"
   viewBox="0 0 366.08065 59.218748"
   id="svg2"
   version="1.1"
   inkscape:version="0.91 r13725"
   sodipodi:docname="kiegle6363white.svg">
  <defs
     id="defs4" />
  <sodipodi:namedview
     id="base"
     pagecolor="#ffffff"
     bordercolor="#666666"
     borderopacity="1.0"
     inkscape:pageopacity="0.0"
     inkscape:pageshadow="2"
     inkscape:zoom="0.98994949"
     inkscape:cx="-147.93266"
     inkscape:cy="151.40849"
     inkscape:document-units="px"
     inkscape:current-layer="layer1"
     showgrid="false"
     inkscape:window-width="1920"
     inkscape:window-height="1138"
     inkscape:window-x="1912"
     inkscape:window-y="-8"
     inkscape:window-maximized="1"
     showguides="true"
     inkscape:guide-bbox="true"
     fit-margin-top="0"
     fit-margin-left="0"
     fit-margin-right="0"
     fit-margin-bottom="0">
    <sodipodi:guide
       position="-84.715667,30.619421"
       orientation="0,1"
       id="guide4181" />
  </sodipodi:namedview>
  <metadata
     id="metadata7">
    <rdf:RDF>
      <cc:Work
         rdf:about="">
        <dc:format>image/svg+xml</dc:format>
        <dc:type
           rdf:resource="http://purl.org/dc/dcmitype/StillImage" />
        <dc:title></dc:title>
      </cc:Work>
    </rdf:RDF>
  </metadata>
  <g
     inkscape:label="Layer 1"
     inkscape:groupmode="layer"
     id="layer1"
     transform="translate(-212.21567,-391.26288)">
    <path
       inkscape:connector-curvature="0"
       id="path4141"
       style="font-style:normal;font-variant:normal;font-weight:normal;font-stretch:normal;font-size:80px;line-height:125%;font-family:DokChampa;-inkscape-font-specification:DokChampa;letter-spacing:0px;word-spacing:0px;fill:#ffffff;fill-opacity:1;stroke:none;stroke-width:1px;stroke-linecap:butt;stroke-linejoin:miter;stroke-opacity:1"
       d="m 304.6317,449.50507 -10,0 -20.3125,-28.94532 -9.45313,9.10157 0,19.84375 -7.57812,0 0,-57.26563 7.57812,0 0,28.39844 28.47657,-28.39844 10.23437,0 -23.98437,23.20313 25.03906,34.0625 z" />
    <path
       inkscape:connector-curvature="0"
       id="path4143"
       style="font-style:normal;font-variant:normal;font-weight:normal;font-stretch:normal;font-size:80px;line-height:125%;font-family:DokChampa;-inkscape-font-specification:DokChampa;letter-spacing:0px;word-spacing:0px;fill:#ffffff;fill-opacity:1;stroke:none;stroke-width:1px;stroke-linecap:butt;stroke-linejoin:miter;stroke-opacity:1"
       d="m 319.82701,449.50507 -7.61719,0 0,-57.26563 7.61719,0 0,57.26563 z" />
    <path
       inkscape:connector-curvature="0"
       id="path4145"
       style="font-style:normal;font-variant:normal;font-weight:normal;font-stretch:normal;font-size:80px;line-height:125%;font-family:DokChampa;-inkscape-font-specification:DokChampa;letter-spacing:0px;word-spacing:0px;fill:#ffffff;fill-opacity:1;stroke:none;stroke-width:1px;stroke-linecap:butt;stroke-linejoin:miter;stroke-opacity:1"
       d="m 333.3817,449.50507 42.77344,0 0,-57.26563 -41.44531,0 0,6.79688 33.86719,0 0,17.5 -31.67969,0 0,6.79687 31.67969,0 0,19.375 -35.19532,0 0,6.79688 z" />
    <path
       inkscape:connector-curvature="0"
       id="path4147"
       style="font-style:normal;font-variant:normal;font-weight:normal;font-stretch:normal;font-size:80px;line-height:125%;font-family:DokChampa;-inkscape-font-specification:DokChampa;letter-spacing:0px;word-spacing:0px;fill:#ffffff;fill-opacity:1;stroke:none;stroke-width:1px;stroke-linecap:butt;stroke-linejoin:miter;stroke-opacity:1"
       d="m 437.60045,441.49725 q -10.82031,8.98438 -23.67188,8.98438 -13.16406,0 -21.25,-8.00781 -8.04687,-8.04688 -8.04687,-21.36719 0,-8.125 3.28125,-15.11719 3.32031,-7.03125 9.72656,-10.85937 6.44531,-3.86719 15.74219,-3.86719 9.64844,0 15.46875,4.25781 5.85937,4.21875 7.89062,12.69531 l -6.79687,1.91407 q -1.60156,-6.17188 -5.74219,-9.25782 -4.14062,-3.125 -10.82031,-3.125 -10.35156,0 -15.625,6.32813 -5.27344,6.32812 -5.27344,16.5625 0,7.65625 2.53906,12.73437 2.57813,5.07813 7.57813,7.69532 5.03906,2.57812 10.9375,2.57812 8.98437,0 16.71875,-5.89844 l 0,-10.625 -16.875,0 0,-6.83593 24.21875,0 0,21.21093 z" />
    <path
       inkscape:connector-curvature="0"
       id="path4149"
       style="font-style:normal;font-variant:normal;font-weight:normal;font-stretch:normal;font-size:80px;line-height:125%;font-family:DokChampa;-inkscape-font-specification:DokChampa;letter-spacing:0px;word-spacing:0px;fill:#ffffff;fill-opacity:1;stroke:none;stroke-width:1px;stroke-linecap:butt;stroke-linejoin:miter;stroke-opacity:1"
       d="m 484.51451,449.50507 -35.82031,0 0,-57.26563 7.57812,0 0,50.46875 28.24219,0 0,6.79688 z" />
    <path
       inkscape:connector-curvature="0"
       id="path4151"
       style="font-style:normal;font-variant:normal;font-weight:normal;font-stretch:normal;font-size:80px;line-height:125%;font-family:DokChampa;-inkscape-font-specification:DokChampa;letter-spacing:0px;word-spacing:0px;fill:#ffffff;fill-opacity:1;stroke:none;stroke-width:1px;stroke-linecap:butt;stroke-linejoin:miter;stroke-opacity:1"
       d="m 493.53795,449.50507 42.77344,0 0,-57.26563 -41.44531,0 0,6.79688 33.86719,0 0,17.5 -31.67969,0 0,6.79687 31.67969,0 0,19.375 -35.19532,0 0,6.79688 z" />
    <text
       xml:space="preserve"
       style="font-style:normal;font-weight:normal;font-size:17.5px;line-height:125%;font-family:Sans;letter-spacing:0px;word-spacing:0px;fill:#ffffff;fill-opacity:1;stroke:none;stroke-width:1px;stroke-linecap:butt;stroke-linejoin:miter;stroke-opacity:1;"
       x="540.85248"
       y="431.71176"
       id="text4159"
       sodipodi:linespacing="125%"><tspan
         sodipodi:role="line"
         id="tspan4161"
         x="540.85248"
         y="431.71176"
         style="font-style:normal;font-variant:normal;font-weight:normal;font-stretch:normal;font-size:35px;font-family:DokChampa;-inkscape-font-specification:DokChampa;fill:#ffffff;fill-opacity:1;">63</tspan></text>
    <text
       xml:space="preserve"
       style="font-style:normal;font-weight:normal;font-size:17.5px;line-height:125%;font-family:Sans;letter-spacing:0px;word-spacing:0px;fill:#ffffff;fill-opacity:1;stroke:none;stroke-width:1px;stroke-linecap:butt;stroke-linejoin:miter;stroke-opacity:1;"
       x="210.74594"
       y="431.91055"
       id="text4159-1"
       sodipodi:linespacing="125%"><tspan
         sodipodi:role="line"
         id="tspan4161-0"
         x="210.74594"
         y="431.91055"
         style="font-style:normal;font-variant:normal;font-weight:normal;font-stretch:normal;font-size:35px;font-family:DokChampa;-inkscape-font-specification:DokChampa;fill:#ffffff;fill-opacity:1;">63</tspan></text>
  </g>
</svg>
